<svg xmlns="http://www.w3.org/2000/svg" xmlns:xlink="http://www.w3.org/1999/xlink" width="500" zoomAndPan="magnify" viewBox="0 0 375 374.999991" height="500" preserveAspectRatio="xMidYMid meet" version="1.0"><path fill="#ffffff" d="M 106.898438 192.386719 L 75 192.386719 L 69.742188 203.964844 L 57.277344 203.964844 L 84.605469 142.75 L 97.179688 142.75 L 124.503906 203.964844 L 112.042969 203.964844 Z M 90.890625 155.589844 L 79.574219 181.613281 L 102.210938 181.613281 Z M 90.890625 155.589844 " fill-opacity="1" fill-rule="nonzero"/><path fill="#ffffff" d="M 145.542969 142.75 L 145.542969 193.304688 L 176.867188 193.304688 L 176.867188 203.964844 L 133.992188 203.964844 L 133.992188 142.75 Z M 145.542969 142.75 " fill-opacity="1" fill-rule="nonzero"/><path fill="#ffffff" d="M 240.546875 159.714844 L 220.65625 186.3125 L 218.367188 186.3125 L 198.933594 159.601562 L 198.933594 204.082031 L 187.5 204.082031 L 187.5 142.867188 L 200.761719 142.867188 L 219.855469 169.117188 L 238.949219 142.867188 L 252.097656 142.867188 L 252.097656 204.082031 L 240.546875 204.082031 Z M 240.546875 159.714844 " fill-opacity="1" fill-rule="nonzero"/><path fill="#ffffff" d="M 308.6875 203.964844 L 262.957031 203.964844 C 262.957031 183.5625 262.957031 163.15625 262.957031 142.75 L 308.6875 142.75 L 308.6875 153.984375 L 274.390625 153.984375 L 274.390625 168.085938 L 307.546875 168.085938 L 307.546875 178.859375 L 274.503906 178.859375 L 274.503906 192.617188 L 308.804688 192.617188 L 308.804688 203.964844 Z M 308.6875 203.964844 " fill-opacity="1" fill-rule="nonzero"/><path fill="#ffffff" d="M 373.628906 203.964844 L 359.910156 203.964844 L 342.074219 183.5625 L 330.984375 183.5625 L 330.984375 203.964844 L 319.4375 203.964844 L 319.4375 142.75 C 329.152344 142.75 338.757812 142.867188 348.476562 142.867188 C 362.882812 142.980469 370.425781 152.609375 370.425781 163.15625 C 370.425781 171.523438 366.539062 180.007812 354.992188 182.414062 L 373.628906 203.164062 Z M 331.097656 153.527344 L 331.097656 173.128906 L 348.589844 173.128906 C 355.90625 173.128906 358.992188 168.199219 358.992188 163.386719 C 358.992188 158.457031 355.792969 153.640625 348.589844 153.640625 L 331.097656 153.640625 Z M 331.097656 153.527344 " fill-opacity="1" fill-rule="nonzero"/><path fill="#ffffff" d="M 52.019531 160.519531 C 52.019531 165.21875 49.734375 169.804688 44.132812 172.328125 C 51.332031 174.503906 53.847656 182.070312 53.847656 185.96875 C 53.847656 199.609375 43.671875 203.964844 30.984375 203.964844 C 21.265625 203.964844 11.660156 203.964844 2.058594 203.964844 L 2.058594 142.75 C 11.660156 142.75 21.378906 142.75 30.984375 142.75 C 43.101562 142.75 52.019531 148.253906 52.019531 160.519531 Z M 13.492188 167.398438 L 31.097656 167.398438 C 38.300781 167.398438 40.703125 164.300781 40.703125 160.863281 C 40.703125 158.113281 38.414062 153.296875 31.097656 153.296875 L 13.492188 153.296875 Z M 13.492188 193.191406 L 31.097656 193.191406 C 35.785156 193.191406 42.53125 191.585938 42.53125 185.851562 C 42.53125 180.351562 35.785156 177.484375 31.097656 177.484375 L 13.492188 177.484375 Z M 13.492188 193.191406 " fill-opacity="1" fill-rule="nonzero"/><path fill="#ffffff" d="M 2.058594 120.625 L 47.105469 120.625 L 47.105469 130.484375 L 2.058594 130.484375 Z M 2.058594 120.625 " fill-opacity="1" fill-rule="nonzero"/></svg>